<svg id="Warstwa_1" data-name="Warstwa 1" xmlns="http://www.w3.org/2000/svg" viewBox="0 0 2048 2048" fill="#f23535"><path d="M193,726.72l45.29,86.16,109-50.37-15.12,65.16-69.92,30.75L282.45,897l31.94,7.4L302,958,147.64,922.18l12.43-53.58,58.08,13.47-43.46-76.48Z"/><path d="M302.63,523.85,331.39,477l135,82.84-42.56,69.38-128.62,9.37,89.27,54.77-28.76,46.88-135-82.84L263.28,588l128.61-9.37Z"/><path d="M584,355.23c34.53,40.82,30.38,81.22-21.19,124.84-51.73,43.77-91.95,41.2-126.63.21l-52.43-62,42-35.52,51,60.3c12.08,14.27,30.52,23.46,56.22,1.72s19.55-41.61,7.61-55.72l-51-60.3,42-35.53Z"/><path d="M820.49,297.29l12.21,29.24-50.76,21.19L773.29,327c-5.42-13-10.2-15.3-23.19-9.87L693.66,340.7l15.59,37.36-50.76,21.18-61-146.18,113.7-47.46c40.41-16.86,67.46-8.61,80.25,22.05,9.33,22.34,5.21,39.31-9.91,52.78C798.78,274.41,813.2,279.83,820.49,297.29ZM665.18,272.48l11.53,27.61,50.76-21.19c11.37-4.74,19.89-8.3,14.13-22.11s-14.29-10.24-25.66-5.5Z"/><path d="M980.15,149l67.88-6.65L973.59,255.77l5.15,52.55L924,313.68l-5.15-52.55-95-96.8,67.88-6.65,50,54.79Z"/><path d="M1259.6,291.52c-3.47,9,4,19.68,34.38,31.36,31.63,12.16,38,9.66,40.46,3.29,3.07-8-1.1-11.26-37.78-28.66-57.08-26.89-78.93-50.37-66.3-83.23,11.6-30.19,50.67-33.09,101.19-13.67,58.12,22.34,83,52.15,72.46,85.6l-53.4-20.53c3.71-9.65-7.19-18.08-33.27-28.1-25-9.63-31.69-7.71-33.66-2.57-2.45,6.36,1.74,10.8,35.88,27.46,50.84,24.72,84.3,42.53,69.06,82.17-14.44,37.58-52,37.07-106.79,16-59.35-22.82-88.41-50.25-75.62-89.65Z"/><path d="M1603.46,425.79l-53.09-41-68.62,88.78-43.52-33.64,68.62-88.77-53.09-41L1482,273.52l149.7,115.72Z"/><path d="M1688.21,670.06l-25.9,18.25-31.67-45L1649,630.42c11.52-8.11,12.73-13.27,4.62-24.78l-35.22-50-33.1,23.31-31.67-45,129.5-91.22,71,100.73c25.21,35.79,23,64-4.15,83.12-19.79,13.93-37.25,13.59-53.67,1.74C1705.85,643.91,1703.68,659.17,1688.21,670.06Zm-9.4-157-24.46,17.23,31.67,45c7.1,10.07,12.42,17.63,24.65,9s6.91-16.17-.18-26.24Z"/><path d="M1837.84,834.38l-34.5-102.14-15.63,5.28,33.09,98-39.61,13.38-33.09-98-15.63,5.28L1767,858.32l-39.6,13.38-52.1-154.26,150.08-50.69L1877.44,821Z"/><path d="M1858.62,1057.65,1852.56,950l-16.47.93,5.81,103.24-41.74,2.35-5.81-103.24-16.47.93,6,107.63-41.73,2.35-9.15-162.55,158.16-8.9,9.15,162.55Z"/><path d="M1820.07,1278.31l22.49-105.44-16.13-3.44-21.58,101.14-40.88-8.73,21.57-101.13-16.14-3.44-22.49,105.44L1706,1254l34-159.24,154.93,33L1861,1287Z"/><path d="M1708.43,1498.38l31.71-59.13-98.89-53,26-48.47,98.88,53,31.72-59.14,40.71,21.84-89.41,166.75Z"/><path d="M1491.62,1629.5c-18.15-18.24-20.12-41.74,7.8-69.52l93.58-93.11,111.73,112.3-87.34,86.9c-29.48,29.33-49.85,27.25-66,11-13.5-13.57-13.77-29.75-6.58-45.29C1527.22,1642.19,1507.92,1645.88,1491.62,1629.5Zm48.21-53.86c-5.61,5.59-10.61,10.55-2.54,18.66s13.06,3.15,18.68-2.44l42.11-41.9-16.14-16.22Zm98,14.25-16.13-16.22-35.87,35.69c-7.18,7.14-12.17,12.1-4.1,20.21s13.06,3.15,20.23-4Z"/><path d="M1302.8,1686l24.33,18.58,77.26-40.28-1.31-30.58,51.9-27.06,5.92,175.57-69.45,36.21L1250.9,1713Zm103.51,22-44.49,23.19,46.86,35.62Z"/><path d="M1181.88,1770.3l-101.73,18.56-8.29-45.45L1227.7,1715l28.44,155.84-54.12,9.88Z"/><path d="M984.59,1786.06l-103.1-8,3.56-46.07L1043,1744.22l-12.2,157.94L976,1897.93Z"/><path d="M684.35,1703.32l-93.74-50.06,19.69-36.88,152.16,81.27L751.06,1719c-30.27,56.67-130.28-5.48-144.58,21.3-4,7.57-1.89,15.21,14.61,24,18.24,9.75,33,10.14,40.77-4.41l50.46,26.95c-24.51,36.54-67.9,32.33-110.21,9.73-42.89-22.91-62.57-52.38-47.54-80.52C581.93,1664.84,666.35,1713.67,684.35,1703.32Z"/><path d="M529.85,1656.33c-34.36,34.73-82.42,35.76-125.9-7.26-43.33-42.86-42.81-91.25-8.61-125.81,34.35-34.72,82.89-35.92,126.21,7C565,1573.22,564.35,1621.46,529.85,1656.33Zm-95.41-94.39c-18.41,18.62-17.38,38.21.45,55.85s37.29,18.63,55.86-.14c18.72-18.92,17.52-38.68-.15-56.16S453,1543.18,434.44,1561.94Z"/><path d="M368.09,1408.19l-51.34-93,36.6-20.2,83.33,151-21.19,11.7c-56.24,31-106.26-75.55-132.84-60.88-7.52,4.14-9.87,11.72-.83,28.1,10,18.1,22.14,26.47,36.59,18.5l27.64,50.08c-40.46,17.3-74.55-9.87-97.72-51.86-23.49-42.57-24-78,4-93.42C303.17,1320.13,347.36,1407.06,368.09,1408.19Z"/><path d="M257.38,1098.29c32-7,56.13,18,67.62,70.86,14.15,65.14,1.31,95.18-38.39,108.3l-11.68-53.75c14-3,18-15.62,12.3-41.84-5.08-23.44-12-29.37-21.89-27.22-11.18,2.43-13.2,10.75-6,43.86l-30.1,6.53c-6.72-31-12.66-37.55-22.33-35.45-8.6,1.87-12.44,10.13-7.58,32.49,5.46,25.16,14.34,34.94,30.46,31.44L241,1285.1c-41.57,4.53-66.78-22.41-79.53-81.11-11-50.74-.79-82.45,29.52-89,17.2-3.74,29.1,3.36,37.72,16.12C231.24,1114.77,239.1,1102.25,257.38,1098.29Z"/></svg>